<mxfile host="app.diagrams.net" modified="2024-05-05T02:16:19.854Z" agent="Mozilla/5.0 (Windows NT 10.0; Win64; x64) AppleWebKit/537.36 (KHTML, like Gecko) Chrome/124.0.0.0 Safari/537.36" etag="dnhI1UEidHOX9_ekws3Y" version="24.3.1" type="google">
  <diagram id="C5RBs43oDa-KdzZeNtuy" name="Page-1">
    <mxGraphModel grid="1" page="1" gridSize="10" guides="1" tooltips="1" connect="1" arrows="1" fold="1" pageScale="1" pageWidth="827" pageHeight="1169" math="0" shadow="0">
      <root>
        <mxCell id="WIyWlLk6GJQsqaUBKTNV-0" />
        <mxCell id="WIyWlLk6GJQsqaUBKTNV-1" parent="WIyWlLk6GJQsqaUBKTNV-0" />
        <mxCell id="tMEurPyYNeqHKlPVVptC-48" value="" style="rounded=0;whiteSpace=wrap;html=1;" vertex="1" parent="WIyWlLk6GJQsqaUBKTNV-1">
          <mxGeometry x="-420" y="50" width="420" height="800" as="geometry" />
        </mxCell>
        <mxCell id="tMEurPyYNeqHKlPVVptC-25" style="edgeStyle=orthogonalEdgeStyle;rounded=0;orthogonalLoop=1;jettySize=auto;html=1;entryX=0.5;entryY=0;entryDx=0;entryDy=0;" edge="1" parent="WIyWlLk6GJQsqaUBKTNV-1" source="tMEurPyYNeqHKlPVVptC-1" target="tMEurPyYNeqHKlPVVptC-24">
          <mxGeometry relative="1" as="geometry" />
        </mxCell>
        <mxCell id="tMEurPyYNeqHKlPVVptC-1" value="게임 시작" style="rounded=1;whiteSpace=wrap;html=1;arcSize=50;fillColor=#ffe6cc;strokeColor=#d79b00;" vertex="1" parent="WIyWlLk6GJQsqaUBKTNV-1">
          <mxGeometry x="-210" y="60" width="120" height="60" as="geometry" />
        </mxCell>
        <mxCell id="tMEurPyYNeqHKlPVVptC-16" style="edgeStyle=orthogonalEdgeStyle;rounded=0;orthogonalLoop=1;jettySize=auto;html=1;entryX=0.5;entryY=0;entryDx=0;entryDy=0;" edge="1" parent="WIyWlLk6GJQsqaUBKTNV-1" source="tMEurPyYNeqHKlPVVptC-12" target="tMEurPyYNeqHKlPVVptC-15">
          <mxGeometry relative="1" as="geometry" />
        </mxCell>
        <mxCell id="tMEurPyYNeqHKlPVVptC-12" value="&lt;div&gt;&lt;span style=&quot;background-color: initial;&quot;&gt;선행 플레이어부터&lt;/span&gt;&lt;/div&gt;&lt;div&gt;&lt;span style=&quot;background-color: initial;&quot;&gt;3자리 숫자 입력&lt;/span&gt;&lt;br&gt;&lt;/div&gt;" style="rounded=0;whiteSpace=wrap;html=1;fillColor=#d5e8d4;strokeColor=#82b366;" vertex="1" parent="WIyWlLk6GJQsqaUBKTNV-1">
          <mxGeometry x="-210" y="240" width="120" height="60" as="geometry" />
        </mxCell>
        <mxCell id="tMEurPyYNeqHKlPVVptC-19" value="YES" style="edgeStyle=orthogonalEdgeStyle;rounded=0;orthogonalLoop=1;jettySize=auto;html=1;fontSize=14;entryX=0.5;entryY=0;entryDx=0;entryDy=0;" edge="1" parent="WIyWlLk6GJQsqaUBKTNV-1" source="tMEurPyYNeqHKlPVVptC-15" target="tMEurPyYNeqHKlPVVptC-28">
          <mxGeometry relative="1" as="geometry">
            <mxPoint x="-150" y="470" as="targetPoint" />
          </mxGeometry>
        </mxCell>
        <mxCell id="tMEurPyYNeqHKlPVVptC-21" value="NO" style="edgeStyle=orthogonalEdgeStyle;rounded=0;orthogonalLoop=1;jettySize=auto;html=1;fontSize=14;" edge="1" parent="WIyWlLk6GJQsqaUBKTNV-1" source="tMEurPyYNeqHKlPVVptC-15" target="tMEurPyYNeqHKlPVVptC-22">
          <mxGeometry relative="1" as="geometry">
            <mxPoint x="-310" y="380" as="targetPoint" />
          </mxGeometry>
        </mxCell>
        <mxCell id="tMEurPyYNeqHKlPVVptC-15" value="입력값이&amp;nbsp;&lt;div&gt;정답과 같은가?&lt;/div&gt;" style="rhombus;whiteSpace=wrap;html=1;fillColor=#e1d5e7;strokeColor=#9673a6;" vertex="1" parent="WIyWlLk6GJQsqaUBKTNV-1">
          <mxGeometry x="-210" y="330" width="120" height="80" as="geometry" />
        </mxCell>
        <mxCell id="tMEurPyYNeqHKlPVVptC-41" style="edgeStyle=orthogonalEdgeStyle;rounded=0;orthogonalLoop=1;jettySize=auto;html=1;entryX=0.5;entryY=1;entryDx=0;entryDy=0;" edge="1" parent="WIyWlLk6GJQsqaUBKTNV-1" source="tMEurPyYNeqHKlPVVptC-22" target="tMEurPyYNeqHKlPVVptC-37">
          <mxGeometry relative="1" as="geometry" />
        </mxCell>
        <mxCell id="tMEurPyYNeqHKlPVVptC-22" value="스트라이크, 볼, 아웃등 결과값 출력" style="rounded=0;whiteSpace=wrap;html=1;fillColor=#d5e8d4;strokeColor=#82b366;" vertex="1" parent="WIyWlLk6GJQsqaUBKTNV-1">
          <mxGeometry x="-400" y="380" width="120" height="60" as="geometry" />
        </mxCell>
        <mxCell id="tMEurPyYNeqHKlPVVptC-26" style="edgeStyle=orthogonalEdgeStyle;rounded=0;orthogonalLoop=1;jettySize=auto;html=1;entryX=0.5;entryY=0;entryDx=0;entryDy=0;" edge="1" parent="WIyWlLk6GJQsqaUBKTNV-1" source="tMEurPyYNeqHKlPVVptC-24" target="tMEurPyYNeqHKlPVVptC-12">
          <mxGeometry relative="1" as="geometry" />
        </mxCell>
        <mxCell id="tMEurPyYNeqHKlPVVptC-24" value="&lt;div style=&quot;forced-color-adjust: none; color: rgb(0, 0, 0); font-family: Helvetica; font-size: 12px; font-style: normal; font-variant-ligatures: normal; font-variant-caps: normal; font-weight: 400; letter-spacing: normal; orphans: 2; text-align: center; text-indent: 0px; text-transform: none; widows: 2; word-spacing: 0px; -webkit-text-stroke-width: 0px; white-space: normal; text-decoration-thickness: initial; text-decoration-style: initial; text-decoration-color: initial;&quot;&gt;player 1, 2&lt;/div&gt;&lt;span style=&quot;color: rgb(0, 0, 0); font-family: Helvetica; font-size: 12px; font-style: normal; font-variant-ligatures: normal; font-variant-caps: normal; font-weight: 400; letter-spacing: normal; orphans: 2; text-align: center; text-indent: 0px; text-transform: none; widows: 2; word-spacing: 0px; -webkit-text-stroke-width: 0px; white-space: normal; text-decoration-thickness: initial; text-decoration-style: initial; text-decoration-color: initial; float: none; display: inline !important;&quot;&gt;3자리 숫자 설정&lt;/span&gt;" style="shape=parallelogram;perimeter=parallelogramPerimeter;whiteSpace=wrap;html=1;fixedSize=1;fillColor=#f5f5f5;fontColor=#333333;strokeColor=#666666;" vertex="1" parent="WIyWlLk6GJQsqaUBKTNV-1">
          <mxGeometry x="-210" y="150" width="120" height="60" as="geometry" />
        </mxCell>
        <mxCell id="tMEurPyYNeqHKlPVVptC-33" style="edgeStyle=orthogonalEdgeStyle;rounded=0;orthogonalLoop=1;jettySize=auto;html=1;entryX=0.5;entryY=0;entryDx=0;entryDy=0;" edge="1" parent="WIyWlLk6GJQsqaUBKTNV-1" source="tMEurPyYNeqHKlPVVptC-28" target="tMEurPyYNeqHKlPVVptC-32">
          <mxGeometry relative="1" as="geometry" />
        </mxCell>
        <mxCell id="tMEurPyYNeqHKlPVVptC-35" value="NO" style="edgeStyle=orthogonalEdgeStyle;rounded=0;orthogonalLoop=1;jettySize=auto;html=1;entryX=1;entryY=0.5;entryDx=0;entryDy=0;fontSize=14;exitX=1;exitY=0.5;exitDx=0;exitDy=0;" edge="1" parent="WIyWlLk6GJQsqaUBKTNV-1" source="tMEurPyYNeqHKlPVVptC-32" target="tMEurPyYNeqHKlPVVptC-24">
          <mxGeometry relative="1" as="geometry">
            <Array as="points">
              <mxPoint x="-40" y="590" />
              <mxPoint x="-40" y="180" />
            </Array>
          </mxGeometry>
        </mxCell>
        <mxCell id="tMEurPyYNeqHKlPVVptC-28" value="승/패 메세지 출력&lt;div&gt;및 스코어 출력&lt;/div&gt;" style="rounded=0;whiteSpace=wrap;html=1;fillColor=#d5e8d4;strokeColor=#82b366;" vertex="1" parent="WIyWlLk6GJQsqaUBKTNV-1">
          <mxGeometry x="-210" y="460" width="120" height="60" as="geometry" />
        </mxCell>
        <mxCell id="tMEurPyYNeqHKlPVVptC-29" value="게임 종료" style="rounded=1;whiteSpace=wrap;html=1;arcSize=50;fillColor=#ffe6cc;strokeColor=#d79b00;" vertex="1" parent="WIyWlLk6GJQsqaUBKTNV-1">
          <mxGeometry x="-210" y="780" width="120" height="60" as="geometry" />
        </mxCell>
        <mxCell id="tMEurPyYNeqHKlPVVptC-36" value="YES" style="edgeStyle=orthogonalEdgeStyle;rounded=0;orthogonalLoop=1;jettySize=auto;html=1;fontSize=14;entryX=0.5;entryY=0;entryDx=0;entryDy=0;" edge="1" parent="WIyWlLk6GJQsqaUBKTNV-1" source="tMEurPyYNeqHKlPVVptC-32" target="tMEurPyYNeqHKlPVVptC-45">
          <mxGeometry relative="1" as="geometry">
            <mxPoint x="-150" y="670" as="targetPoint" />
          </mxGeometry>
        </mxCell>
        <mxCell id="tMEurPyYNeqHKlPVVptC-32" value="&lt;div&gt;라운드가&amp;nbsp;&lt;/div&gt;&lt;div&gt;끝이 났는가?&lt;/div&gt;" style="rhombus;whiteSpace=wrap;html=1;fillColor=#e1d5e7;strokeColor=#9673a6;" vertex="1" parent="WIyWlLk6GJQsqaUBKTNV-1">
          <mxGeometry x="-210" y="550" width="120" height="80" as="geometry" />
        </mxCell>
        <mxCell id="tMEurPyYNeqHKlPVVptC-44" style="edgeStyle=orthogonalEdgeStyle;rounded=0;orthogonalLoop=1;jettySize=auto;html=1;" edge="1" parent="WIyWlLk6GJQsqaUBKTNV-1">
          <mxGeometry relative="1" as="geometry">
            <mxPoint x="-150" y="314" as="targetPoint" />
            <mxPoint x="-280" y="314.0000000000001" as="sourcePoint" />
          </mxGeometry>
        </mxCell>
        <mxCell id="tMEurPyYNeqHKlPVVptC-37" value="&lt;span style=&quot;color: rgb(0, 0, 0); font-family: Helvetica; font-size: 12px; font-style: normal; font-variant-ligatures: normal; font-variant-caps: normal; font-weight: 400; letter-spacing: normal; orphans: 2; text-align: center; text-indent: 0px; text-transform: none; widows: 2; word-spacing: 0px; -webkit-text-stroke-width: 0px; white-space: normal; text-decoration-thickness: initial; text-decoration-style: initial; text-decoration-color: initial; float: none; display: inline !important;&quot;&gt;다른 플레이어에게&lt;/span&gt;&lt;div&gt;&lt;span style=&quot;color: rgb(0, 0, 0); font-family: Helvetica; font-size: 12px; font-style: normal; font-variant-ligatures: normal; font-variant-caps: normal; font-weight: 400; letter-spacing: normal; orphans: 2; text-align: center; text-indent: 0px; text-transform: none; widows: 2; word-spacing: 0px; -webkit-text-stroke-width: 0px; white-space: normal; text-decoration-thickness: initial; text-decoration-style: initial; text-decoration-color: initial; float: none; display: inline !important;&quot;&gt;기회 넘어감&lt;/span&gt;&lt;/div&gt;" style="rounded=0;whiteSpace=wrap;html=1;fillColor=#d5e8d4;strokeColor=#82b366;" vertex="1" parent="WIyWlLk6GJQsqaUBKTNV-1">
          <mxGeometry x="-400" y="288" width="120" height="60" as="geometry" />
        </mxCell>
        <mxCell id="tMEurPyYNeqHKlPVVptC-47" style="edgeStyle=orthogonalEdgeStyle;rounded=0;orthogonalLoop=1;jettySize=auto;html=1;entryX=0.5;entryY=0;entryDx=0;entryDy=0;" edge="1" parent="WIyWlLk6GJQsqaUBKTNV-1" source="tMEurPyYNeqHKlPVVptC-45" target="tMEurPyYNeqHKlPVVptC-29">
          <mxGeometry relative="1" as="geometry" />
        </mxCell>
        <mxCell id="tMEurPyYNeqHKlPVVptC-45" value="스코어 계산 후&amp;nbsp;&lt;div&gt;최종 승/패&amp;nbsp;&lt;div&gt;메세지 출력&lt;/div&gt;&lt;/div&gt;" style="rounded=0;whiteSpace=wrap;html=1;fillColor=#d5e8d4;strokeColor=#82b366;" vertex="1" parent="WIyWlLk6GJQsqaUBKTNV-1">
          <mxGeometry x="-210" y="680" width="120" height="60" as="geometry" />
        </mxCell>
      </root>
    </mxGraphModel>
  </diagram>
</mxfile>
